<svg xmlns="http://www.w3.org/2000/svg" viewBox="0 0 64 64" id="cute-baby"><path fill="#fbab9e" d="M53.65,30.31c2.4,0,4.35,2.3,4.35,5.15s-2,5.16-4.35,5.16"></path><path fill="none" stroke="#000" stroke-linecap="round" stroke-linejoin="round" stroke-width="2" d="M53.65,30.31c2.4,0,4.35,2.3,4.35,5.15s-2,5.16-4.35,5.16"></path><path fill="#fbab9e" d="M10.35,40.62C8,40.62,6,38.31,6,35.46s2-5.15,4.35-5.15"></path><path fill="none" stroke="#000" stroke-linecap="round" stroke-linejoin="round" stroke-width="2" d="M10.35,40.62C8,40.62,6,38.31,6,35.46s2-5.15,4.35-5.15"></path><ellipse cx="32" cy="34.78" fill="#fecfc2" rx="22" ry="20.53"></ellipse><ellipse cx="38.37" cy="34.78" fill="#fee2d9" rx="15.63" ry="19.66"></ellipse><ellipse cx="32" cy="34.78" fill="none" stroke="#000" stroke-linecap="round" stroke-linejoin="round" stroke-width="2" rx="22" ry="20.53"></ellipse><path fill="none" stroke="#231f20" stroke-linecap="round" stroke-linejoin="round" stroke-width="2" d="M20.68 33.75a2.85 2.85 0 0 1 2.61-3.05 2.85 2.85 0 0 1 2.61 3.05M37.23 33.75a2.85 2.85 0 0 1 2.61-3.05 2.85 2.85 0 0 1 2.61 3.05M36.35 42a4.35 4.35 0 1 1-8.7 0"></path><path fill="none" stroke="#000" stroke-linecap="round" stroke-linejoin="round" stroke-width="2" d="M32 14.24s-6.91 3.35-4.35 8.91M35.2 14.46s-3.51 4.22-1.13 6.27"></path></svg>