<svg xmlns="http://www.w3.org/2000/svg" xmlns:xlink="http://www.w3.org/1999/xlink" data-name="Layer 2" viewBox="0 0 64 64" id="halal"><defs><linearGradient id="b" x1="32" x2="32" y1="61" y2="3" gradientUnits="userSpaceOnUse"><stop offset="0" stop-color="#00684e"></stop><stop offset="1" stop-color="#009c6b"></stop></linearGradient><linearGradient id="a" x1="32" x2="32" y1="8.657" y2="55.343" gradientUnits="userSpaceOnUse"><stop offset="0" stop-color="#ffc033"></stop><stop offset="1" stop-color="#ef8e2e"></stop></linearGradient><linearGradient id="c" x1="35" x2="35" y1="22" y2="42" xlink:href="#a"></linearGradient><linearGradient id="d" x1="22" x2="22" y1="22" y2="39" xlink:href="#a"></linearGradient></defs><path fill="url(#b)" d="m60.707 31.293-7.908-7.908V12.2a1 1 0 0 0-1-1H40.615l-7.908-7.908a1 1 0 0 0-1.414 0l-7.908 7.908H12.2a1 1 0 0 0-1 1v11.184l-7.908 7.908a1 1 0 0 0 0 1.414l7.908 7.908V51.8a1 1 0 0 0 1 1h11.184l7.908 7.908a1 1 0 0 0 1.414 0l7.908-7.908H51.8a1 1 0 0 0 1-1V40.615l7.908-7.908a1 1 0 0 0 0-1.414Z"></path><path fill="url(#a)" d="M32 55.343a.997.997 0 0 1-.707-.293L25.041 48.8h-8.84a1 1 0 0 1-1-1v-8.84L8.95 32.707a1 1 0 0 1 0-1.414l6.252-6.252v-8.84a1 1 0 0 1 1-1h8.84l6.251-6.251a1 1 0 0 1 1.414 0l6.252 6.252h8.84a1 1 0 0 1 1 1v8.84l6.251 6.251a1 1 0 0 1 0 1.414l-6.252 6.252v8.84a1 1 0 0 1-1 1h-8.84l-6.251 6.251a.997.997 0 0 1-.707.293ZM17.201 46.8h8.255a1 1 0 0 1 .707.293L32 52.929l5.837-5.837a1 1 0 0 1 .707-.293H46.8v-8.255a1 1 0 0 1 .293-.707L52.929 32l-5.837-5.837a1 1 0 0 1-.293-.707V17.2h-8.255a1 1 0 0 1-.707-.293L32 11.071l-5.837 5.837a1 1 0 0 1-.707.293H17.2v8.255a1 1 0 0 1-.293.707L11.071 32l5.837 5.837a1 1 0 0 1 .293.707Z"></path><path fill="url(#c)" d="m45.83 35.442-2.098-3.123a6.092 6.092 0 0 0-6.12-2.736 6.194 6.194 0 0 0-2.558 1.127l-.654.49 1.2 1.6.654-.49a3.956 3.956 0 0 1 5.818 1.124L43.123 35H33V22h-2v9.764l-3.106-6.211-1.788.894 4.874 9.75A3.995 3.995 0 0 1 27 40h-3v2h3a6.005 6.005 0 0 0 5.91-5H45a1 1 0 0 0 .83-1.558Z"></path><path fill="url(#d)" d="M25 22h-2v11a4.005 4.005 0 0 1-4 4v2a6.007 6.007 0 0 0 6-6Z"></path></svg>