<svg xmlns="http://www.w3.org/2000/svg" enable-background="new 0 0 3000 3000" viewBox="0 0 3000 3000" id="islamic-mosque"><path fill="#d8c899" d="M733.94 1269.84H719.5c.66-4.2 1.05-8.46 1.05-12.8 0-30.32-15.03-56.89-37.53-71.72-13.91-9.19-25.92-21.13-35.37-35.17 1.71-1.77 2.89-4.27 2.89-7.09 0-4-2.23-7.41-5.51-8.86l-2.3-38.32h-2.69l-2.36 38.32c-3.22 1.44-5.45 4.86-5.45 8.86 0 2.82 1.18 5.32 2.89 7.09-9.45 14.11-21.39 25.92-35.37 35.17-22.51 14.83-37.53 41.41-37.53 71.72 0 4.33.46 8.6 1.05 12.8h-13.91c-5.91 0-10.63 5.12-10.63 11.35v6.36c0 6.23 4.72 11.29 10.63 11.29h1.97v714.13h182.35l-2.23-714.13h2.49c5.84 0 10.56-5.05 10.56-11.29v-6.36c.01-6.24-4.72-11.35-10.56-11.35z"></path><path fill="#8c705b" d="M733.94 1269.84H719.5c.66-4.2 1.05-8.46 1.05-12.8 0-30.32-15.03-56.89-37.53-71.72-13.71-9.06-25.59-20.8-35.04-34.65 5.71 8.53 80.32 123.69-31.69 123.17v10.89h128.22v-3.54c0-6.24-4.73-11.35-10.57-11.35z" opacity=".2"></path><path fill="#8c705b" d="M645.49 1286.31c59.65 23.17 88.07 687.42-94.16 696.28v30.38h182.35l-2.23-714.13h2.49c5.84 0 10.56-5.05 10.56-11.29v-1.25c.01.01-83.44-19.24-99.01.01z" opacity=".2"></path><path fill="#7f634f" d="M686.83 1757.58h-90.47v-102.76c0-24.98 20.25-45.23 45.24-45.23 24.98 0 45.24 20.25 45.24 45.23v102.76z"></path><path fill="#8c705b" d="M578.06 1751.15h127.08v11.69H578.06zM565.18 1480.53h152.83v11.69H565.18z"></path><path fill="#7f634f" d="M596.59 1400.65v79.87h-26.56v-79.87c0-20.36 5.61-37.43 13.31-42.68 7.64 5.25 13.25 22.33 13.25 42.68zM674.97 1392.18v88.35h-67.16v-88.35c0-22.51 14.27-41.37 33.55-47.16 19.41 5.79 33.61 24.65 33.61 47.16zM712.94 1400.65v79.87h-26.51v-79.87c0-20.36 5.61-37.43 13.25-42.68 7.59 5.25 13.26 22.33 13.26 42.68z"></path><path fill="#8c705b" d="M731.85 1302.07h-180.1c-9.58 0-17.35-7.77-17.35-17.35 0-9.58 7.77-17.35 17.35-17.35h180.09c9.58 0 17.35 7.77 17.35 17.35 0 9.58-7.76 17.35-17.34 17.35z"></path><path fill="#d8c899" d="M2231.06 1281.19v6.36c0 6.23 4.72 11.29 10.57 11.29h2.49l-2.23 714.13h182.35v-714.13h1.97c5.91 0 10.63-5.05 10.63-11.29v-6.36c0-6.23-4.73-11.35-10.63-11.35h-13.91c.59-4.2 1.05-8.46 1.05-12.8 0-30.32-15.03-56.89-37.53-71.72-13.98-9.25-25.92-21.06-35.37-35.17 1.71-1.77 2.89-4.27 2.89-7.09 0-4-2.23-7.41-5.45-8.86l-2.36-38.32h-2.69l-2.3 38.32c-3.28 1.44-5.51 4.86-5.51 8.86 0 2.82 1.18 5.32 2.89 7.09-9.45 14.04-21.46 25.99-35.37 35.17-22.51 14.83-37.53 41.41-37.53 71.72 0 4.33.39 8.6 1.05 12.8h-14.44c-5.85 0-10.57 5.11-10.57 11.35z"></path><path fill="#8c705b" d="M2231.06 1281.19v3.54h128.22v-10.89c-112.01.53-37.4-114.64-31.69-123.17-9.45 13.85-21.33 25.59-35.04 34.65-22.51 14.83-37.53 41.41-37.53 71.72 0 4.33.39 8.6 1.05 12.8h-14.44c-5.85 0-10.57 5.11-10.57 11.35z" opacity=".2"></path><path fill="#8c705b" d="M2231.06 1286.31v1.25c0 6.23 4.72 11.29 10.57 11.29h2.49l-2.23 714.13h182.35v-30.38c-182.23-8.86-153.81-673.11-94.16-696.28-15.57-19.26-99.02-.01-99.02-.01z" opacity=".2"></path><path fill="#7f634f" d="M2288.73 1757.58h90.47v-102.76c0-24.98-20.25-45.23-45.24-45.23-24.98 0-45.24 20.25-45.24 45.23v102.76z"></path><path fill="#8c705b" d="M2270.43 1751.15h127.08v11.69h-127.08z" transform="rotate(-180 2333.97 1756.996)"></path><path fill="#8c705b" d="M2257.56 1480.53h152.83v11.69h-152.83z" transform="rotate(-180 2333.97 1486.374)"></path><path fill="#7f634f" d="M2378.97 1400.65v79.87h26.57v-79.87c0-20.36-5.61-37.43-13.31-42.68-7.65 5.25-13.26 22.33-13.26 42.68zM2300.59 1392.18v88.35h67.16v-88.35c0-22.51-14.27-41.37-33.55-47.16-19.4 5.79-33.61 24.65-33.61 47.16zM2262.62 1400.65v79.87h26.51v-79.87c0-20.36-5.61-37.43-13.25-42.68-7.59 5.25-13.26 22.33-13.26 42.68z"></path><path fill="#8c705b" d="M2243.72 1302.07h180.09c9.58 0 17.35-7.77 17.35-17.35 0-9.58-7.77-17.35-17.35-17.35h-180.09c-9.58 0-17.35 7.77-17.35 17.35 0 9.58 7.77 17.35 17.35 17.35z"></path><path fill="#f5efd2" d="M335.93 2202.99h2335.94c-137.02 177.37-608.01 308.11-1167.97 308.11S472.95 2380.37 335.93 2202.99z"></path><path fill="#a59063" d="M567.13 2300.47s12.66-17.21 0-37.58c0 0 16.41 6.74 14.87 18.79 0 0 8.7 11.68 11.26 0 2.56-11.68 4.06 14.41-13.06 18.79s-17.12 9.93-20.19 2.35c-3.07-7.57-2.17-17.17-5.18-21.71-3.01-4.54 16.36 1.86 12.3 19.36zM1165.91 2384.6s-16.61-22.58 0-49.29c0 0-21.52 8.83-19.51 24.65 0 0-11.41 15.32-14.76 0-3.36-15.32-5.32 18.91 17.14 24.65 22.46 5.74 22.46 13.02 26.49 3.09 4.03-9.94 2.84-22.52 6.79-28.48 3.94-5.97-21.47 2.43-16.15 25.38zM1406.35 2321.77s16.61-22.58 0-49.29c0 0 21.52 8.84 19.51 24.65 0 0 11.41 15.32 14.76 0 3.36-15.32 5.32 18.91-17.14 24.65-22.46 5.74-22.46 13.02-26.49 3.09-4.03-9.93-2.84-22.52-6.79-28.48-3.93-5.98 21.47 2.42 16.15 25.38zM1730.33 2293.13s16.61-22.58 0-49.29c0 0 21.52 8.83 19.51 24.65 0 0 11.41 15.32 14.76 0 3.36-15.32 5.32 18.91-17.14 24.65-22.46 5.74-22.46 13.02-26.48 3.09-4.03-9.94-2.84-22.52-6.79-28.48-3.95-5.98 21.46 2.42 16.14 25.38zM1596.48 2427.47s16.61-22.58 0-49.29c0 0 21.52 8.83 19.51 24.65 0 0 11.41 15.32 14.76 0 3.36-15.32 5.32 18.91-17.14 24.65-22.46 5.74-22.46 13.02-26.49 3.09-4.03-9.93-2.84-22.52-6.79-28.48-3.93-5.98 21.47 2.42 16.15 25.38zM959.91 2298.57s16.61-22.58 0-49.29c0 0 21.52 8.84 19.51 24.65 0 0 11.41 15.32 14.76 0 3.36-15.32 5.32 18.91-17.14 24.65-22.46 5.74-22.46 13.02-26.48 3.09-4.03-9.94-2.84-22.52-6.79-28.48-3.95-5.98 21.46 2.42 16.14 25.38zM732.64 2349.05s-16.61-22.58 0-49.29c0 0-21.52 8.84-19.51 24.65 0 0-11.41 15.32-14.76 0-3.36-15.32-5.32 18.91 17.14 24.65 22.46 5.74 22.46 13.02 26.49 3.09 4.03-9.94 2.84-22.52 6.79-28.48 3.93-5.98-21.47 2.42-16.15 25.38zM2446.32 2284.25s-16.61-22.58 0-49.29c0 0-21.52 8.84-19.51 24.65 0 0-11.41 15.32-14.76 0-3.36-15.32-5.32 18.91 17.14 24.65 22.46 5.74 22.46 13.02 26.49 3.09 4.03-9.93 2.84-22.52 6.79-28.48 3.94-5.98-21.47 2.42-16.15 25.38zM2262.69 2353.99s-16.61-22.58 0-49.29c0 0-21.52 8.84-19.51 24.65 0 0-11.41 15.32-14.76 0-3.36-15.32-5.32 18.91 17.14 24.65 22.46 5.74 22.46 13.02 26.48 3.09 4.03-9.94 2.84-22.52 6.79-28.48 3.94-5.97-21.46 2.43-16.14 25.38zM1919.89 2398.82s-16.61-22.58 0-49.29c0 0-21.52 8.84-19.51 24.65 0 0-11.41 15.32-14.76 0-3.36-15.32-5.32 18.91 17.14 24.65 22.46 5.74 22.46 13.02 26.48 3.09 4.03-9.94 2.84-22.52 6.79-28.48 3.95-5.97-21.46 2.43-16.14 25.38zM2069.8 2287.86s-16.61-22.58 0-49.29c0 0-21.52 8.84-19.51 24.65 0 0-11.41 15.32-14.76 0-3.35-15.32-5.32 18.91 17.14 24.65 22.46 5.74 22.46 13.02 26.49 3.09 4.03-9.93 2.84-22.52 6.79-28.48 3.94-5.97-21.47 2.42-16.15 25.38z"></path><path fill="#a59063" d="M900.87 1690.07h1206.06v443.1H900.87z" transform="rotate(-180 1503.9 1911.624)"></path><path fill="#d8c899" d="M519.15 1806.2h1969.51v381.98H519.15z"></path><path fill="#d8c899" d="M330.46 2206.51h2346.89v-31.71a4.96 4.96 0 0 0-4.96-4.96H335.41a4.96 4.96 0 0 0-4.96 4.96v31.71z"></path><path fill="#b7a472" d="M457.65 2169.84h2092.5v-31.76c0-2.71-2.2-4.9-4.9-4.9H462.55c-2.71 0-4.9 2.2-4.9 4.9v31.76z"></path><path fill="#a59063" d="M1429.6 2078.13h148.59V2050c0-1.99-1.62-3.61-3.61-3.61h-141.37c-1.99 0-3.61 1.62-3.61 3.61v28.13zM1330.48 2133.18h346.85v-28.13c0-1.99-1.62-3.61-3.61-3.61h-339.63c-1.99 0-3.61 1.62-3.61 3.61v28.13z"></path><path fill="#b7a472" d="M1402.1 2101.43h203.6v-28.12c0-1.99-1.62-3.61-3.61-3.61h-196.38c-1.99 0-3.61 1.62-3.61 3.61v28.12z"></path><path fill="#7f634f" d="M1461.51 1915.69s-3.29-29.75 20.95-45.39c7.82-5.04 13.28-10.6 17.08-15.82 2.32-3.16 4.02-6.2 5.28-8.92.96 1.71 2.09 3.5 3.43 5.31 3.8 5.23 9.26 10.78 17.08 15.82 24.24 15.64 20.94 45.41 20.94 45.41 18.53 0 20.6 31.39 20.6 31.39v105.75H1440.92V1947.1c.01-.01 2.07-31.41 20.59-31.41zM1889.69 2016.02s-2.89-26.1 18.38-39.82c6.87-4.42 11.64-9.3 14.99-13.88 2.03-2.78 3.52-5.44 4.62-7.82.84 1.49 1.83 3.06 3 4.66 3.34 4.58 8.13 9.46 14.99 13.88 21.26 13.73 18.37 39.83 18.37 39.83 16.26 0 18.06 27.53 18.06 27.53v92.77H1871.62v-89.6c.01 0 1.82-27.55 18.07-27.55zM2124.99 2016.02s-2.89-26.1 18.38-39.82c6.87-4.42 11.65-9.3 14.98-13.88 2.03-2.78 3.53-5.44 4.63-7.82.84 1.49 1.83 3.06 3.01 4.66 3.34 4.58 8.13 9.46 14.98 13.88 21.27 13.73 18.38 39.83 18.38 39.83 16.26 0 18.07 27.53 18.07 27.53v92.77h-110.48v-89.6c-.01 0 1.8-27.55 18.05-27.55zM808.45 2016.02s-2.87-26.1 18.38-39.82c6.87-4.42 11.66-9.3 15-13.88 2.03-2.78 3.51-5.44 4.62-7.82a45.56 45.56 0 0 0 3.02 4.66c3.32 4.58 8.11 9.46 14.98 13.88 21.27 13.73 18.36 39.83 18.36 39.83 16.26 0 18.07 27.53 18.07 27.53v92.77H790.4v-89.6c-.01 0 1.81-27.55 18.05-27.55zM1043.76 2016.02s-2.9-26.1 18.37-39.82c6.87-4.42 11.66-9.3 14.99-13.88 2.03-2.78 3.54-5.44 4.63-7.82a43.76 43.76 0 0 0 3.01 4.66c3.33 4.58 8.12 9.46 14.99 13.88 21.26 13.73 18.37 39.83 18.37 39.83 16.25 0 18.06 27.53 18.06 27.53v92.77H1025.7v-89.6c-.01 0 1.8-27.55 18.06-27.55zM1921.49 1746.83v14.66c0 5.78 5.73 10.52 13.05 10.95 7.3-.43 13.05-5.16 13.05-10.95v-14.66c0-5.75-5.75-10.51-13.05-10.92-3.48.19-6.58 1.36-8.9 3.17-2.57 1.99-4.15 4.71-4.15 7.75zM1879.62 1746.83v14.66c0 5.78 5.72 10.52 13.04 10.95 7.29-.43 13.04-5.16 13.04-10.95v-14.66c0-5.75-5.75-10.51-13.04-10.92-3.49.19-6.59 1.36-8.91 3.17-2.56 1.99-4.13 4.71-4.13 7.75zM1837.73 1746.83v14.66c0 5.78 5.71 10.52 13.04 10.95 7.3-.43 13.04-5.16 13.04-10.95v-14.66c0-5.75-5.74-10.51-13.04-10.92-3.49.19-6.59 1.36-8.9 3.17-2.57 1.99-4.14 4.71-4.14 7.75zM1771.08 1746.83v14.66c0 5.78 5.73 10.52 13.04 10.95 7.31-.43 13.05-5.16 13.05-10.95v-14.66c0-5.75-5.74-10.51-13.05-10.92-3.48.19-6.59 1.36-8.9 3.17-2.56 1.99-4.14 4.71-4.14 7.75zM1729.19 1746.83v14.66c0 5.78 5.73 10.52 13.04 10.95 7.31-.43 13.06-5.16 13.06-10.95v-14.66c0-5.75-5.75-10.51-13.06-10.92-3.48.19-6.59 1.36-8.89 3.17-2.57 1.99-4.15 4.71-4.15 7.75zM1687.31 1746.83v14.66c0 5.78 5.72 10.52 13.04 10.95 7.3-.43 13.05-5.16 13.05-10.95v-14.66c0-5.75-5.75-10.51-13.05-10.92-3.48.19-6.59 1.36-8.9 3.17-2.57 1.99-4.14 4.71-4.14 7.75zM1620.68 1746.83v14.66c0 5.78 5.71 10.52 13.04 10.95 7.29-.43 13.04-5.16 13.04-10.95v-14.66c0-5.75-5.75-10.51-13.04-10.92-3.49.19-6.59 1.36-8.9 3.17-2.58 1.99-4.14 4.71-4.14 7.75zM1578.79 1746.83v14.66c0 5.78 5.71 10.52 13.04 10.95 7.3-.43 13.04-5.16 13.04-10.95v-14.66c0-5.75-5.74-10.51-13.04-10.92-3.49.19-6.59 1.36-8.9 3.17-2.57 1.99-4.14 4.71-4.14 7.75zM1536.89 1746.83v14.66c0 5.78 5.72 10.52 13.05 10.95 7.29-.43 13.04-5.16 13.04-10.95v-14.66c0-5.75-5.75-10.51-13.04-10.92-3.5.19-6.6 1.36-8.91 3.17-2.56 1.99-4.14 4.71-4.14 7.75zM1470.25 1746.83v14.66c0 5.78 5.73 10.52 13.06 10.95 7.29-.43 13.04-5.16 13.04-10.95v-14.66c0-5.75-5.75-10.51-13.04-10.92-3.49.19-6.6 1.36-8.9 3.17-2.57 1.99-4.16 4.71-4.16 7.75zM1428.37 1746.83v14.66c0 5.78 5.72 10.52 13.05 10.95 7.29-.43 13.04-5.16 13.04-10.95v-14.66c0-5.75-5.75-10.51-13.04-10.92-3.49.19-6.6 1.36-8.9 3.17-2.57 1.99-4.15 4.71-4.15 7.75zM1386.48 1746.83v14.66c0 5.78 5.72 10.52 13.05 10.95 7.3-.43 13.05-5.16 13.05-10.95v-14.66c0-5.75-5.75-10.51-13.05-10.92-3.49.19-6.59 1.36-8.9 3.17-2.57 1.99-4.15 4.71-4.15 7.75zM1319.84 1746.83v14.66c0 5.78 5.72 10.52 13.04 10.95 7.31-.43 13.06-5.16 13.06-10.95v-14.66c0-5.75-5.75-10.51-13.06-10.92-3.47.19-6.59 1.36-8.9 3.17-2.56 1.99-4.14 4.71-4.14 7.75zM1277.95 1746.83v14.66c0 5.78 5.72 10.52 13.05 10.95 7.3-.43 13.05-5.16 13.05-10.95v-14.66c0-5.75-5.75-10.51-13.05-10.92-3.48.19-6.6 1.36-8.91 3.17-2.56 1.99-4.14 4.71-4.14 7.75zM1236.06 1746.83v14.66c0 5.78 5.73 10.52 13.05 10.95 7.3-.43 13.05-5.16 13.05-10.95v-14.66c0-5.75-5.75-10.51-13.05-10.92-3.48.19-6.6 1.36-8.89 3.17-2.58 1.99-4.16 4.71-4.16 7.75zM1143.98 1746.83v14.66c0 5.78 5.73 10.52 13.06 10.95 7.29-.43 13.04-5.16 13.04-10.95v-14.66c0-5.75-5.75-10.51-13.04-10.92-3.49.19-6.6 1.36-8.9 3.17-2.57 1.99-4.16 4.71-4.16 7.75zM1102.1 1746.83v14.66c0 5.78 5.72 10.52 13.05 10.95 7.29-.43 13.04-5.16 13.04-10.95v-14.66c0-5.75-5.75-10.51-13.04-10.92-3.49.19-6.6 1.36-8.9 3.17-2.56 1.99-4.15 4.71-4.15 7.75zM1060.21 1746.83v14.66c0 5.78 5.72 10.52 13.05 10.95 7.3-.43 13.05-5.16 13.05-10.95v-14.66c0-5.75-5.75-10.51-13.05-10.92-3.49.19-6.59 1.36-8.91 3.17-2.56 1.99-4.14 4.71-4.14 7.75z"></path><path fill="#d8c899" fill-rule="evenodd" d="M1900.24 1630.82h18.05v59.25h-828.77v-59.25h18.05c-300.6-309.92 174.74-501.59 347.98-701.33-1.64-23.23.39-50.99 24.34-62.6-18.5-10.63-15.09-31.63 4.66-39.63.72-9.84 3.61-49.28 4.33-58.27-13.39-6.36-12.21-21.59 1.64-26.97 4.4-55.45 9.38-128.22 13.39-187.6 4 59.39 8.99 132.16 13.39 187.6 13.85 5.38 15.03 20.6 1.64 26.97.72 8.99 3.61 48.43 4.33 58.27 19.75 8.01 23.16 29 4.66 39.63 23.95 11.61 25.98 39.37 24.34 62.6 173.23 199.74 648.57 391.41 347.97 701.33z" clip-rule="evenodd"></path><path fill="#f5efd2" fill-rule="evenodd" d="M1900.22 1630.8h18.05v59.25h-587.81v-59.45l-151.57-6.94c-127.23-313.59 261.15-596.75 384.65-681.66 181.49 195.29 630.98 385.38 336.68 688.8z" clip-rule="evenodd" opacity=".35"></path><path fill="#b7a472" d="M1535.73 548.52c-42.05 0-76.13-34.07-76.13-76.13 0-30.21 17.64-56.22 43.14-68.53-44.45 5.79-78.79 43.7-78.79 89.73 0 50.02 40.55 90.58 90.58 90.58 46.02 0 83.93-34.35 89.71-78.78-12.29 25.5-38.31 43.13-68.51 43.13z"></path><path fill="#b7a472" d="m1502.61 490.65-4.57 26.62 23.91-12.56 23.9 12.56-4.57-26.62 19.34-18.85-26.73-3.88-11.94-24.22-11.96 24.22-26.73 3.88z"></path><path fill="#f5efd2" d="M1566.79 1036.25s239.48 153.4 249.14 237.18c16.87 146.28-270.83 340.33-463.59 321.05-192.76-19.28-85.32-440.93 214.45-558.23z" opacity=".5"></path><path fill="#f5efd2" d="M1560.43 1108.84s123.78 77.63 130.93 139.65c12.49 108.29-146.99 287.86-289.68 273.59s-63.16-326.4 158.75-413.24z" opacity=".5"></path></svg>