<svg xmlns="http://www.w3.org/2000/svg" viewBox="0 0 64 64" id="muhammad"><linearGradient id="a" x1=".5" x2="63.5" y1="32" y2="32" gradientUnits="userSpaceOnUse"><stop offset="0" stop-color="#9ac850"></stop><stop offset="1" stop-color="#4b9da7"></stop></linearGradient><path fill="url(#a)" d="M23.681 28.679h12.061a3.552 3.552 0 0 0 3.548-3.549v-5.733c0-1.02-.83-1.849-1.85-1.849h-1.66c-1.02 0-1.85.829-1.85 1.849v3.923h-1.534v-3.923c0-1.02-.83-1.849-1.849-1.849h-1.661a1.85 1.85 0 0 0-1.849 1.849v3.923h-1.534v-3.923c0-1.02-.83-1.849-1.85-1.849h-1.661c-1.02 0-1.85.829-1.85 1.849v4.779a.977.977 0 0 0-.01.144v.811a3.553 3.553 0 0 0 3.549 3.548zm-1.549-4.216a.977.977 0 0 0 .01-.144v-4.771h1.36v3.922c0 1.02.83 1.85 1.849 1.85h1.835c1.02 0 1.85-.83 1.85-1.85v-3.922h1.359v3.922c0 1.02.83 1.85 1.85 1.85h1.835c1.02 0 1.849-.83 1.849-1.85v-3.922h1.36v5.582a1.55 1.55 0 0 1-1.548 1.549h-12.06a1.55 1.55 0 0 1-1.548-1.549v-.667zM53.23 23.37h-.872a10.831 10.831 0 0 0 3.099 6.593l4.52 4.521a6.026 6.026 0 0 1 1.589 5.767c-.671 2.69-3.173 4.57-6.086 4.57h-6.83c-1.103 0-2 .897-2 2v6.41c0 5.663-4.607 10.27-10.27 10.27s-10.27-4.606-10.27-10.27v-6.41c0-1.103-.897-2-2-2h-4.852C17.451 58.473 1.764 60.237 1.602 60.254A.999.999 0 0 1 .5 59.259v-7.955a1 1 0 0 1 .933-.998c.351-.025 8.654-.722 8.567-9.526V29.71a1 1 0 0 1 1-1h7.36a1 1 0 0 1 1 1v5.75h1.772a1 1 0 1 1 0 2H18.36a1 1 0 0 1-1-1v-5.75H12v10.06c.087 8.782-6.924 10.912-9.5 11.397v5.931c3.487-.638 13.953-3.455 14.863-14.36a1 1 0 0 1 .997-.917h5.75c2.206 0 4 1.794 4 4v6.41c0 4.56 3.71 8.27 8.27 8.27s8.27-3.71 8.27-8.27v-6.41c0-2.206 1.794-4 4-4h6.83c1.961 0 3.704-1.284 4.146-3.055a4.039 4.039 0 0 0-1.062-3.868l-4.52-4.521a12.824 12.824 0 0 1-3.733-9.007 1 1 0 0 1 1-1h1.92c4.56 0 8.27-3.71 8.27-8.271v-2.33a8.238 8.238 0 0 0-.674-3.276.999.999 0 1 1 1.835-.793 10.248 10.248 0 0 1 .838 4.068v2.33c0 5.665-4.607 10.272-10.27 10.272zm-6.71 10.774a12.692 12.692 0 0 1-3.57-8.85V10.77C42.95 5.107 47.557.5 53.22.5c.768 0 1.522.083 2.253.246.539.12.878.654.758 1.193s-.655.883-1.194.758A8.323 8.323 0 0 0 53.23 2.5c-4.57 0-8.28 3.71-8.28 8.27v14.524c0 2.798 1.069 5.448 3.01 7.462l2.9 3.011a1 1 0 0 1-.72 1.693H31.348a1 1 0 1 1 0-2h16.44l-1.268-1.316zM56.67 2.102a.999.999 0 0 1 1.352-.417 10.38 10.38 0 0 1 3.338 2.809 1 1 0 1 1-1.582 1.224 8.373 8.373 0 0 0-2.69-2.266 1 1 0 0 1-.418-1.35zM26.446 35.46a1 1 0 1 1 0 2h-2.29a1 1 0 1 1 0-2h2.29zM53.705 7.898a2.928 2.928 0 0 0-2.371.66 2.905 2.905 0 0 0-1.024 2.211v2.33c0 .776.303 1.507.854 2.059a2.925 2.925 0 0 0 2.301.843c1.5-.116 2.675-1.434 2.675-2.999v-2.131c0-1.473-1.047-2.751-2.435-2.973zm.435 5.104c0 .519-.372.97-.83 1.005a.926.926 0 0 1-.733-.264.908.908 0 0 1-.268-.644v-2.33a.919.919 0 0 1 1.079-.896c.421.067.751.506.751.998v2.131zM33.46 50.905v2.319c0 1.607 1.308 2.915 2.915 2.915s2.915-1.308 2.915-2.915v-2.319c0-1.607-1.308-2.915-2.915-2.915s-2.915 1.308-2.915 2.915zm3.83 0v2.319a.916.916 0 0 1-1.83 0v-2.319a.916.916 0 0 1 1.83 0z"></path></svg>