<svg xmlns="http://www.w3.org/2000/svg" enable-background="new 0 0 3000 3000" viewBox="0 0 3000 3000" id="muslim-man-is-praying"><path fill="#f5efd2" d="M2644.76 1505.48c-15.23 619.07-521.92 1116.2-1144.58 1116.2-632.29 0-1144.94-512.57-1144.94-1144.94 0-632.29 512.65-1144.87 1144.94-1144.87 60.22 0 119.29 4.67 176.99 13.65-416.36 67.91-734.12 429.22-734.12 864.83 0 483.98 392.35 876.33 876.33 876.33 380.5 0 704.3-242.45 825.38-581.2z"></path><path fill="#d8c899" d="M1659.55 2358.8c-36.54-47.62-69.39-98-99.59-149.85-15.92-27.34-31.11-55.12-45.73-83.18-12.7-24.36-24.21-49.22-36.38-73.83-7.28-14.73-14.71-29.4-22.12-44.08-302.47-138.15-512.68-443.27-512.68-797.51 0-435.61 317.76-796.93 734.12-864.83-4.31-.65-8.62-1.29-12.93-1.87-617.93 16.53-1113.76 522.56-1113.76 1144.44 0 576.53 426.13 1053.46 980.53 1133.16 116.77-3.07 229.18-23.63 334.72-59.16-77.94-57.54-147.06-126.24-206.18-203.29z" opacity=".5"></path><linearGradient id="a" x1="1600.05" x2="1600.05" y1="1033.894" y2="1033.863" gradientUnits="userSpaceOnUse"><stop offset=".457" stop-color="#eaa745"></stop><stop offset="1" stop-color="#ed6840"></stop></linearGradient><path fill="url(#a)" d="m1600.03 1033.87.04.05"></path><path fill="#a59063" d="M2499.02 2054.43c-22.38 46.23-48.02 90.61-76.67 132.76-108.62 160.2-259.79 289.17-437.33 370.66h-.04c-133.79-37.64-88.53-68.23-135.88-88.33-48.51-20.54-46.22-40.11-77.78-75.7-31.57-35.6-109.17-107.56-122.18-134.9l-.06-.05c-7.22-15.2 13.27-33.51 52.25-53.9h.04c31.23-16.32 74.36-33.94 124.51-52.2 45.13-16.43 80.47-12.62 106.64-2.14 37.39 14.99 79.75 14.09 114.45-6.39 24.49-14.46 55.2-22.7 88.53-8.53 80.13 34.09 75.26-30.18 242.8-85.89 19.74-6.56 36.58-3.69 51.25-.11 18.97 4.63 38.98-.98 53.06-14.52 14.38-1.59 26.56-3.96 16.41 19.24z"></path><path fill="#d8c899" d="M940.15 2220.82c-16.65-139.59-142.07-111.76-177.85-76.02l-2.04 2.04c-64.2 63.95-31.52-15.03-23.75-125.27.48-6.54.86-13.16 1.13-19.87 1.88-48.11-28.07-58.95-64.7-54.64-78.1 9.19-139.35 84.48-120.95 160.93 56.46 234.58 392.53 399.6 537.04 460 37.52 15.74-118.93-96.1-148.88-347.17z"></path><path fill="#998258" d="M2349.1 2211.61c-333.31 518.53-1113.79 588.42-1575.01 196.61 66.81-22.15 168.77-64.64 213.63-88.42 122.49-59.16 110.33-100.7 205.32-55 128.61 61.87 138.02 79.51 243.9 38.4 270.47-188.31 248.42 20.28 504.42-51.33 173.33-61.4 248.14-94.44 407.74-40.26z"></path><path fill="#d8c899" d="M2463.86 2121.18c-.96 1.81-1.92 3.56-2.88 5.32-.06.05-.1.09-.1.19-16.68 30.42-34.79 59.88-54.36 88.33-36.8 53.63-78.43 103.62-124.38 149.3-.09.19-.24.33-.38.43-94.25 89.73-203.51 163.81-323.6 218.14h-.06c-12.5 5.65-25.1 11.1-37.84 16.31-126.68 48.72-265.23 73.33-410.08 68.3-1.76-.01-3.53-.11-5.29-.17-16.56-.66-33.01-1.7-49.42-3.22-15.85-1.43-31.63-3.27-47.28-5.45-11.76-1.63-23.4-3.51-35.01-5.56 20.28-10.17 37.38-20.5 55.2-32.83 68.74-47.6 31.93-102.97 212.94-95.7 181.16 7.22 253.33-37.18 301.63-97.17 48.31-59.9 111.85 9.75 221.66-85.61 109.79-95.31 50.5-70.41 176.62-137.31 59-31.29 97.9-60.77 122.63-83.3z"></path><path fill="#e8dfba" d="M1758.62 1427.94s68.04 121.64 53.55 123.8c-14.53 2.21-285.79 113.88-285.79 113.88l-61.21-185.54 293.45-52.14z"></path><path fill="#f2a68f" d="M1983.32 1392.46c-3.24-6.03-39.18 10.45-57.02 19.44 24.62-15.36 68.44-43.31 67.24-51.84-1.56-11.09-47.73 10.94-79.34 27.45 25.32-14.43 57.1-34.67 51.43-42.49-8.69-11.99-89.42 28.67-115.45 41.94l-4.09 2.09c-13.03 6.65-25.56.98-19.09-12.91 6.52-13.92-3.11-42.81-14.55-43.03-11.41-.18-8.49 50.41-23.14 61.69-5.99 4.63-11.84 10.19-16.69 15.86-6.6 7.74-11.24 15.66-11.93 21.56-.02.4-.04.8-.08 1.16-.07.2-.15.47-.29.65-10.17 23.8 28.32 73.57 28.32 73.57s8.26 2.12 20.39 2.72c4.67.25 9.9.28 15.48-.1 6.5-.45 13.43-1.47 20.43-3.36 9.07-2.44 25.65-9.72 43.78-18.79 38.84-19.36 84.81-47.29 79.23-55.26-4.61-6.51-22.72-.91-37.95 5.39 24.75-12.28 60.3-32.71 53.32-45.74z"></path><path fill="#ffb598" d="M1960 1544.87c-18.13 9.07-34.71 16.35-43.79 18.79-7 1.89-13.94 2.9-20.43 3.35-5.58.38-10.81.35-15.48.1-12.13-.6-20.39-2.72-20.39-2.72s-38.49-49.77-28.31-73.57c.13-.18.22-.45.29-.65.04-.36.06-.76.08-1.16.69-5.9 5.34-13.82 11.94-21.56 4.85-5.67 10.7-11.23 16.69-15.85 14.65-11.28 11.74-61.87 23.15-61.69 11.44.22 21.06 29.12 14.54 43.04-6.48 13.9 6.05 19.56 19.08 12.92l4.09-2.09c26.03-13.27 106.76-53.92 115.45-41.92 5.67 7.82-26.11 28.05-51.44 42.48 31.61-16.5 77.78-38.53 79.34-27.44 1.2 8.52-42.62 36.47-67.25 51.82 17.84-8.98 53.78-25.45 57.03-19.43 6.98 13.03-28.57 33.45-53.31 45.73 15.23-6.31 33.34-11.9 37.95-5.39 5.59 7.97-40.38 35.89-79.23 55.24z"></path><path fill="#f2a68f" d="M1942.29 1468.49c.04-.02.09 0 .13-.02l38.73-23.17-39.95 21-.06.03c-.08.05-5.82-7.59-9.21-10.97 4.1 5.51 7.59 11.39 10.85 17.38 1.19 2.23 2.35 4.48 3.5 6.74-.01 0-3.27-9.9-3.99-10.99zM1955.26 1493.84c.03-.01.07 0 .09-.01l38.73-23.17-39.66 20.85c-2.92-6.12-6.73-9.18-6.73-9.18 1.41 2.9 2.75 5.84 3.96 8.8 1.53 3.59 2.68 7.34 3.66 11.15.55-.17.81-5.89-.05-8.44zM1960.34 1516.32l40.07-20.76-40.86 18.37c-.15-1.21-2.78-8.8-3.46-8.59h-.01c.41 1.74.79 3.48 1.15 5.23 1.37 6.65 2.38 13.39 3.27 20.16.12-4.77-.33-14.32-.16-14.41z"></path><path fill="#fff" d="M2034.43 1404.47c-2.12-3.09-13.66-.38-14.43.71 0 0 3.87 8.81 5.22 10.01 1.34 1.2 11.33-7.63 9.21-10.72zM2062 1417.11c-2.12-3.09-13.66-.38-14.43.71 0 0 3.87 8.81 5.22 10.01 1.34 1.2 11.34-7.63 9.21-10.72zM2052.63 1452.95c-2.12-3.09-13.66-.38-14.43.71 0 0 3.87 8.81 5.22 10.01 1.34 1.2 11.33-7.63 9.21-10.72zM2034.2 1492.85c-2.12-3.09-13.66-.38-14.43.71 0 0 3.87 8.81 5.22 10.01 1.34 1.19 11.33-7.63 9.21-10.72zM1876.09 1408.26l4.74 1.82s4.45-14.55 1.22-17.14c-3.23-2.6-5.96 15.32-5.96 15.32z" opacity=".2"></path><path fill="#7f634f" d="M2077.16 2273.82c-24.16 137.98-456.86 63.86-616.89 75.94-31.71-.64-111.43 9.1-134.66 6.47.73-13.9.05-18.22 1.66-29.69-49.55-8.78-138.65-7.84-199.31-56.12l-.1-.01c-88.79-53.21-38.23-257.65-20.98-332.63 68.85 42.28 151.49 39.02 229.18 34.6 121.72-3.61 220.73 16.59 221.66 15.85 174.7 100.97 557.46 68.44 519.44 285.59z"></path><path fill="#6b503d" d="M1886.88 2157.16c68.91 26.11 76.89 87.04 95.75 80.51 18.86-6.53-5.08-58.03-51.5-80.51s-44.25 0-44.25 0zM1634.23 2267.74s-183.27-102.04-351.31-66.35c-32.74 6.95-60.38 6.05-83.68.12 4.24-26.17-2.13-51.65-23.51-60.15-52.11-20.73-17.92-134.78-17.92-134.78s85.78 36.93 174.66 10.75c79.36-23.45 251.36 1.51 238.66-19.21-.88-1.58-2.9-3.4-6.15-5.57-1.97-1.28-4.36-2.72-7.25-4.31-.93.74-99.94-19.46-221.66-15.85-51.14 1.53-103.73 6.6-154.13-4.93-26.44-6.06-51.11-16.48-74.64-29.53-.1-.01-.31-.03-.41-.15-5.82 20.53-18.14 75.19-24.94 133.43-6.13 52.61-7.72 108 4.05 143.82 2.42 7.41 5.37 14.05 9.01 19.59 2.24 3.4 4.62 6.61 7.05 9.74.33.42.66.83.99 1.25 2.12 2.66 4.3 5.23 6.54 7.7.41.45.82.92 1.23 1.37a153.67 153.67 0 0 0 16.84 15.55c.07.06.13.12.2.17h.02c60.73 48.22 149.76 47.33 199.36 56.1-19.84-17.22-40.13-43.66-39.66-79.71.94-70.02 346.65 20.95 346.65 20.95z"></path><path fill="#f5efd2" d="M1586.24 1990.37c-110.54 12.62-119.66-4.44-229.77-4.33-84.9 1.22-201.03 7.2-275.45-43.25 61.84-155.76 79.42-636.22 309.3-705.79 253.62-76.76 140.81 691.73 195.92 753.37z"></path><path fill="#e8dfba" d="M1157.91 1871.61c87.77 59.48 217.6 50.05 217.6 50.05s-75.44 36.99-146.52 13.06c-71.08-23.94-71.08-63.11-71.08-63.11zM1570.51 1913.08c-93.06-42.61-233.01-119.15-246.36-198.86-20.17-120.41 17.26-262.58 26.27-218.64 5.96 29.14 131.36 94.47 215.08 135.14 3.04 107.39.78 212.9 5.01 282.36z"></path><path fill="#f5efd2" d="M1911.83 1775.37c-26.6 6.92-72.55-24.16-101.43-13.11-11.23 4.56-17.34 16.62-27.09 23.77-90.28 66.21-382.44-3.38-429.26-82.11-52.71-88.62-20.05-270.84-18.3-316.75 2.91-76.11 117.93-110.26 158.59-57.06 39.38 51.53 63.28 274.45 84 259.35.08.18 215.31-131.95 237.16-133.8 13-1.14 25.95 1.4 36.94 8.95 54.82 47.44 28.29 132.62 43.59 195.95 5.5 37.42 30.24 78.61 15.8 114.81z"></path><path fill="#e8dfba" d="M1529.28 1671.42c27.56-26.11 49.06-75.44 49.06-75.44s-4.93 35.54-14.24 48.6c-9.31 13.06-34.82 26.84-34.82 26.84zM1544.84 1713.13c22.06-30.9 33.74-83.42 33.74-83.42s1.95 35.83-4.69 50.42c-6.65 14.6-29.05 33-29.05 33z"></path><path fill="#ffb598" d="m1350.42 2257.16-65.44-1.72c-6.19-11.63-15.35-26.32-22.9-27.94-21.01-4.5-93.8 48.35-93.8 48.35s-104.37 30.12-150.77 38.51c-46.4 8.39-51.39 39.5-22.02 36.97 28.91-2.49 247.18 25.34 272.95-8.86l80.17 5.14 1.81-90.45z"></path><path fill="#7f634f" d="m1298.21 2239.57-9.26 13.67s29.98 88.2 32.11 100.35c2.13 12.16 11.05 13.87 33.97 9.45 22.93-4.42 163.84-10.91 185.83-7.02 21.99 3.89-50.13-89.78-121.93-105.61-71.8-15.82-120.72-10.84-120.72-10.84z"></path><path fill="#ffb598" d="M1596.09 996.51s5.58 77.95 2.15 102.34c-3.43 24.38 8.91 32.6 8.91 32.6s-6.76 15.38-15.28 19.12c-8.52 3.71-2.34 38.82-33.89 62.6-31.56 23.78-53.47-7.5-69.39 13.41-15.93 20.95-13.93 43.77-13.93 43.77s-98.67 41.58-124.04-23.54c0 0 9.9-41.73 6.94-56.38-2.96-14.68-13.41-155.82 7.27-175.9 20.68-20.1 231.26-18.02 231.26-18.02z"></path><path fill="#33133f" d="M1507.07 1199.92c-4.85-10.95-7.44-23.12-14.1-33.16-5.1 4.64-8.08 11.29-12.15 16.81-5.08 6.89-10.9 13.45-17.37 19.06-6.01 5.2-12.24 8.48-20.1 9.81-5 .84-10.04 1.15-14.92 2.29 12.74 10.89 27.09 20.05 37.17 33.71 3.75 5.08 6.97 10.47 9.89 16.03 2.66-14.76 6.76-29.53 13.11-37.89 8.55-11.22 18.85-7.42 31.42-5.15-5.06-6.69-9.52-13.77-12.95-21.51z" opacity=".15"></path><path fill="#7f634f" d="M1523.02 1098.9s-5.75-13-7.87-9.77c-2.12 3.23 3.53 8.15 3.53 8.15s-11.44-1.09-7.33 4.89c4.11 5.99 11.67-3.27 11.67-3.27zM1576.6 1050.41c-1.99 7.89 29.04 13.54 26.71 6.86-2.32-6.67-23.96-17.78-26.71-6.86zM1567.51 1082.85c-1.16 6.35 8.99-1.33 17-1.66 8.35-1.87 14.57 3.61 13.48.69 2.5-8.47-24.79-21.06-30.48.97z"></path><path fill="#7f634f" d="M1622.1 986.68c-24.96-29.98-37.68-53.45-68.31-28.43-19.42 15.86-25.92 35.54-16.87 48.43-60.26 1.54-167.07 4.86-178.36 9.29-15.81 6.17-22.77 18.16-30.69 59.18-7.91 41-9.81 25.49 4.95 76 14.77 50.46 13.35 38.83 34.65 59.59 21.31 20.75 40.87 1.21 53.17-13.49 12.32-14.71 37.35-8.76 68.57-14.47.44-.08.8-.21 1.22-.3.5 15.58 6.69 35.53 30.49 47.72 41.8 21.42 71.52-72.56 67.36-74.5-4.15-1.94-32.6.54-36.07-1.76-2.25-1.49-7.79-31.33-11.17-50.27 3.04-5.91 5.98-18.53 7.16-28.13 2.2-17.84 30.23-36.35 32.33-45.63.72-3.21.59-7.08.14-10.78 20.93-2.42 60.1-10.02 41.43-32.45zm-119.73 135.68c-15.78-26.74-2.43-42.27 6.82-55.44 9.26-13.19 21.16 6.42 24.85 30.74.12.76.25 1.32.37 1.98 4.56 49.99-29 27.87-32.04 22.72z"></path><path fill="#6b503d" d="M1342.64 1181.9c2.03-11.62 3.09-23.39 5.54-34.94 2.43-11.45 6.99-22.59 17.01-29.39 12.14-8.24 27.68-7.8 41.68-9.17 6.82-.67 21.07-1.78 25.32-8.41 2.84-4.42.77-11.9 2.63-17.03 3.91-10.83 14.6-16.65 24.51-21.14 24.89-11.27 51.7-17.42 75.1-32.15 14.06-8.85 25.82-21.72 31.03-37.75 4.45-13.69 3.65-28.28 2.96-42.53-4.44 1.63-9.24 4.45-14.62 8.85-19.42 15.86-25.92 35.54-16.87 48.43-60.26 1.54-167.07 4.86-178.36 9.29-15.81 6.17-22.77 18.16-30.69 59.18-7.91 41-9.81 25.49 4.95 76 4.34 14.86 7.27 24.25 9.81 30.76z"></path><path fill="#e8dfba" d="M1561.89 977.47c-14.78 58.25-200.46 76.01-224.16 55.35-23.68-20.63-22.04-127.7 110.15-147.1 76.85-11.28 123.82 53.12 114.01 91.75z"></path><path fill="#0f1019" d="M1513.46 963.27s-3.57-3.58-7.6-7.33c3.33-3.54 6.55-7.03 9.3-10.14 3.85 4.54 7.47 8.37 7.47 8.37s-2.81-4.76-6.11-9.94c4.96-5.74 7.86-9.78 5.86-9.48-1.5.23-4.37 2.69-7.89 6.34-3.94-5.98-7.92-11.34-8.34-9.33-.39 1.84 2.89 6.53 6.62 11.15-2.91 3.13-6.14 6.87-9.38 10.77-4.57-4.1-8.96-7.58-8.9-5.71.05 1.65 3.46 4.64 7.38 7.54-2.57 3.12-5.1 6.27-7.43 9.21-4.15-4.97-8.37-9.48-8.58-7.53-.19 1.78 3.31 5.66 7.15 9.34-5.52 7.02-9.57 12.41-9.57 12.41s4.76-4.73 10.97-11.09c4.1 3.82 8.14 7.11 8.14 7.11s-3.16-4.2-6.72-8.56c2.75-2.83 5.72-5.91 8.66-9.01 4.55 3.21 8.97 5.88 8.97 5.88z" opacity=".2"></path><path fill="#f5efd2" d="M1436.06 932.7c.74 20.37-72.2 58.38-71.13 21.94 1.07-36.43 70.32-44.29 71.13-21.94z"></path><path fill="#f5efd2" d="M1334.3 958.94c-.33 9.19 1.7 18.37 7.37 27.07 12.08 18.54 36.24 22.97 55.44 15.77 11.42-4.28 19.96-13.49 30.45-19.47 13.45-7.66 26.1-.44 39.62 3.4 11.98 3.4 24.8 5.94 37.06 2.77 12.17-3.15 22.8-12.39 32.12-20.78 8.76-7.89 16.45-17.33 19.66-29.17 6.54 13.48 8.79 27.37 5.85 38.95-14.78 58.25-200.46 76.01-224.16 55.35-11.81-10.31-17.31-42.16-3.41-73.89z"></path><path fill="#6b503d" d="M1504.94 1153.02c-6.65 3.94-12.87 8.65-19.91 11.96-.09.04-.18.07-.27.11-10.3 7.53-21.09 14.4-31.93 21.19 10.65-.72 22.88-1.04 36.37-3.51.44-.08.8-.21 1.22-.3.5 15.58 6.69 35.53 30.49 47.72 13.67 7 26 1.57 36.33-8.85-27.44-11.11-42.75-39.16-52.3-68.32zM1394.04 1076.99c1.95 11.21 2.54 82.28 5.55 65.23 2.95-16.7.12-27.91.12-27.91l3.7 12.97s8.54-44.18 4.38-51.02c-4.17-6.84-5.76 12.99-5.76 12.99l-7.99-12.26zM1352.12 1094.2c3.17 13.88 36.88 96.19 25.16 77.97-11.48-17.85-13.64-32.15-13.64-32.15l2 16.76s-31.23-46.86-29.74-56.77c1.5-9.91 12.93 12.2 12.93 12.2l3.29-18.01zM1432.89 1116.89c6.7-17.98 22.15-26.52 19.93-32 0 0 7.91 19.8-4.53 30.46l14.64 6.08s-1.71 36.06-21.53 49.1l4.95-33.84s-15.37-14.67-13.46-19.8z"></path><path fill="#e8dfba" d="M1487.06 1245.04s-26.15 12.59-76.91-.1c-50.75-12.7-58.07-21.72-58.07-21.72s-11.65-1.7-27.14 38.42c-15.49 40.11 91.29 55.9 136.28 29.03 44.99-26.87 45.46-18.53 45.46-18.53l-19.62-27.1z"></path><path fill="#d8c899" d="M2101.68 895.94c-4.55 0-8.36 12.35-9.43 29.03-16.68 1.06-29.04 4.88-29.04 9.42 0 4.55 12.35 8.36 29.04 9.42 1.06 16.69 4.88 29.04 9.43 29.04s8.36-12.35 9.42-29.04c16.69-1.06 29.04-4.88 29.04-9.42 0-4.55-12.35-8.36-29.03-9.42-1.07-16.68-4.89-29.04-9.43-29.03z"></path><path fill="#f5efd2" d="M2319.26 1533.94c-2.55 0-4.68 6.92-5.28 16.26-9.34.59-16.25 2.73-16.25 5.28 0 2.54 6.91 4.68 16.25 5.28.6 9.34 2.73 16.25 5.28 16.25 2.55 0 4.68-6.91 5.28-16.25 9.34-.59 16.25-2.73 16.25-5.28 0-2.55-6.91-4.68-16.25-5.28-.6-9.34-2.73-16.26-5.28-16.26z" opacity=".5"></path><path fill="#f5efd2" d="M550.48 2358.57c-4.26 0-7.85 11.59-8.84 27.24-15.65 1-27.24 4.58-27.24 8.84 0 4.27 11.59 7.85 27.24 8.85 1 15.65 4.58 27.24 8.84 27.24 4.27 0 7.85-11.59 8.84-27.24 15.65-1 27.24-4.58 27.24-8.85s-11.59-7.85-27.24-8.84c-.99-15.65-4.57-27.24-8.84-27.24z"></path><path fill="#f5efd2" d="m2543.84 1110.95-12.55-5.24c-.67-.28-1.2-.81-1.48-1.48l-5.24-12.55c-.95-2.26-4.15-2.26-5.09 0l-5.24 12.55c-.28.67-.81 1.2-1.48 1.48l-12.56 5.24c-2.26.94-2.26 4.15 0 5.09l12.56 5.25c.67.28 1.2.81 1.48 1.48l5.24 12.55c.94 2.26 4.15 2.26 5.09 0l5.24-12.55c.28-.67.81-1.2 1.48-1.48l12.55-5.25c2.26-.95 2.26-4.15 0-5.09z" opacity=".5"></path><path fill="#f5efd2" d="m2155.85 575.79-11.8-4.93a2.56 2.56 0 0 1-1.39-1.39l-4.93-11.8c-.89-2.12-3.9-2.12-4.79 0l-4.93 11.8a2.56 2.56 0 0 1-1.39 1.39l-11.81 4.93c-2.12.89-2.13 3.9 0 4.79l11.81 4.93c.63.26 1.13.76 1.39 1.39l4.93 11.8c.89 2.13 3.9 2.13 4.79 0l4.93-11.8c.26-.63.76-1.13 1.39-1.39l11.8-4.93c2.13-.89 2.13-3.9 0-4.79z"></path><path fill="#d8c899" d="m1968.64 413.64-12.83-5.36c-.68-.29-1.23-.83-1.52-1.52l-5.36-12.84c-.97-2.31-4.24-2.31-5.21 0l-5.36 12.84c-.29.69-.83 1.23-1.52 1.52l-12.84 5.36c-2.31.96-2.31 4.24 0 5.21l12.84 5.36c.69.29 1.23.83 1.52 1.52l5.36 12.84c.97 2.31 4.24 2.31 5.21 0l5.36-12.84c.28-.68.83-1.23 1.52-1.52l12.84-5.36c2.3-.96 2.3-4.24-.01-5.21z"></path><path fill="#f5efd2" d="m1618.41 704.31-18.85-7.88a4.13 4.13 0 0 1-2.23-2.23l-7.88-18.86c-1.42-3.4-6.23-3.4-7.65 0l-7.88 18.86a4.13 4.13 0 0 1-2.23 2.23l-18.86 7.88c-3.4 1.42-3.4 6.23 0 7.65l18.87 7.88a4.13 4.13 0 0 1 2.23 2.23l7.88 18.86c1.42 3.4 6.23 3.4 7.65 0l7.88-18.86a4.13 4.13 0 0 1 2.23-2.23l18.85-7.88c3.38-1.43 3.38-6.24-.01-7.65z"></path></svg>