<svg xmlns="http://www.w3.org/2000/svg" data-name="Layer 1" viewBox="0 0 32 32" id="namaz"><path fill="#e0e0e2" d="M16.73 28.84c0 .11-.01.22-.02.32a4.027 4.027 0 0 1-.42 1.16 2.645 2.645 0 0 1-2.21 1.18H3.5v-3h7l4-3 1.46 1.46a2.648 2.648 0 0 1 .77 1.88Z"></path><path fill="#fdc475" d="m26.348 26.153-2.15-1.182-.944 2.402 1.466.766 1.628-1.986z"></path><path fill="#ffdaa7" d="m24.403 29.606.183-1.465a2.422 2.422 0 0 1 2.721-2.102l1.473.195a2.47 2.47 0 0 1 2.118 2.742l-.05.401a2.422 2.422 0 0 1-2.721 2.102l-2.537-.336a1.385 1.385 0 0 1-1.187-1.537Z"></path><path fill="#8b8891" d="m28.948 26.26-.37 2.17-2.85-1.95-.01-.01-.04-.06a2.365 2.365 0 0 1 1.63-.37l1.47.19.17.03Z"></path><path fill="#329e65" d="M16.73 28.84c0 .11-.01.22-.02.32l-1.22.27-.57.01-4.31.06h-3l.09-1h2.8l4-3 1.46 1.46a2.648 2.648 0 0 1 .77 1.88Z"></path><path fill="#37b678" d="M24.684 24.71v.79l-.932 1.865a.262.262 0 0 1-.219.144l-4.609.291-.73.04h-.01l-2.62.59-.57.01-4.31.06h-3l.44-4.83a4.996 4.996 0 0 1 6.47-4.32l7.98 2.49a2.995 2.995 0 0 1 2.11 2.87Z"></path><path fill="#ffdaa7" d="M20.386 29.322a9.089 9.089 0 0 0 1.7.604c.651.16 1.563 1.09 1.485 1.51a9.269 9.269 0 0 1-3.36-.217zM3.5 31.5H.76a.188.188 0 0 1-.178-.247l.462-1.385A2 2 0 0 1 2.942 28.5H3.5z"></path><path fill="#329e65" d="m18.09 27.41.65.39-.73.04H18l-2.62.59-.57.01a1.007 1.007 0 0 1-.01-1.16l1.88-2.65 2.76 1.23Z"></path><path fill="#37b678" d="m20.202 26.209-1.341 1.543 2.003 1.201a.29.29 0 0 1 .138.295l-.296 1.845a.29.29 0 0 1-.418.213l-4.356-2.213a1 1 0 0 1-.364-1.468l1.873-2.654"></path><path fill="#e0e0e2" d="m28.948 26.26-.887 5.21c.048.007.118.017.203.023a2.794 2.794 0 0 0 2.46-1.056 2.27 2.27 0 0 0 .355-.839l.082-.405a2.56 2.56 0 0 0-.251-1.604 2.74 2.74 0 0 0-1.962-1.329zM18.015 5.557l.872-1.728a.2.2 0 0 1 .36.003l.84 1.744a.2.2 0 0 0 .15.11l1.913.297a.2.2 0 0 1 .108.343L20.86 7.664a.2.2 0 0 0-.06.177l.31 1.91a.2.2 0 0 1-.292.21l-1.705-.917a.2.2 0 0 0-.187-.002l-1.721.886a.2.2 0 0 1-.29-.214l.345-1.905a.2.2 0 0 0-.056-.178L15.83 6.267a.2.2 0 0 1 .115-.34l1.918-.262a.2.2 0 0 0 .152-.108z"></path><path fill="#d9d8da" d="M18.31 8.114a.2.2 0 0 0-.057-.178L16.88 6.573a.2.2 0 0 1 .115-.341l1.918-.261a.2.2 0 0 0 .152-.108l.594-1.178-.411-.853a.2.2 0 0 0-.36-.003l-.872 1.728a.2.2 0 0 1-.152.108l-1.918.261a.2.2 0 0 0-.115.341l1.374 1.364a.2.2 0 0 1 .056.178l-.344 1.904a.2.2 0 0 0 .289.215l.856-.44Z"></path><path fill="#e0e0e2" d="M12.207 2.972a6.856 6.856 0 0 1 2.138-1.221.2.2 0 0 1 .22.314 7.055 7.055 0 0 0 6.563 11.366.2.2 0 0 1 .163.347 6.871 6.871 0 0 1-2.72 1.428 7.056 7.056 0 0 1-6.364-12.234Z"></path><path fill="#d9d8da" d="M21.292 13.492a.187.187 0 0 0-.164-.06c-.178.026-.356.025-.534.038.232.017.464.028.698.022zm-8.404.048a7.093 7.093 0 0 1 .319-10.568 6.806 6.806 0 0 1 1.334-.871c.01-.012.015-.024.024-.036a.2.2 0 0 0-.22-.314 6.856 6.856 0 0 0-2.138 1.221 7.038 7.038 0 0 0 5.027 12.442 7.069 7.069 0 0 1-4.346-1.874z"></path></svg>