<svg xmlns="http://www.w3.org/2000/svg" viewBox="0 0 31.55 31.29" id="night"><g data-name="Layer 2"><g data-name="Layer 1"><path d="M5.16,6.46a16.31,16.31,0,0,0-.29,3A16.12,16.12,0,0,0,26.33,24.7a14.88,14.88,0,0,1-1.58,1.49,14,14,0,0,1-22.47-8,14.2,14.2,0,0,1,.38-7.06,14,14,0,0,1,2.5-4.62m5-6A16,16,0,0,0,.32,18.54a16.54,16.54,0,0,0,.93,3A16,16,0,0,0,12.75,31a15.84,15.84,0,0,0,3.22.32h0a15.93,15.93,0,0,0,10-3.54A16.25,16.25,0,0,0,29.5,23.8a15.86,15.86,0,0,0,2.05-4.94A14.11,14.11,0,0,1,10.17.44Z" data-name="Subtraction 2"></path><polygon points="21.71 3.92 23.46 7.47 27.39 8.04 24.55 10.81 25.22 14.72 21.71 12.87 18.2 14.72 18.87 10.81 16.03 8.04 19.95 7.47 21.71 3.92"></polygon><polygon points="29.25 2.08 29.9 3.41 31.37 3.62 30.31 4.65 30.56 6.11 29.25 5.42 27.93 6.11 28.18 4.65 27.12 3.62 28.59 3.41 29.25 2.08"></polygon><polygon points="17.23 0 17.89 1.33 19.35 1.54 18.29 2.58 18.54 4.04 17.23 3.35 15.92 4.04 16.17 2.58 15.11 1.54 16.58 1.33 17.23 0"></polygon></g></g></svg>