<svg xmlns="http://www.w3.org/2000/svg" fill-rule="evenodd" stroke-linejoin="round" stroke-miterlimit="2" clip-rule="evenodd" viewBox="0 0 356 356" id="night-cream"><path fill="#e9ebec" d="M180.472,79.325c9.661,-2.448 19.773,-3.749 30.186,-3.749c67.706,0 122.675,54.969 122.675,122.676c0,67.706 -54.969,122.675 -122.675,122.675c-39.412,-0 -74.508,-18.626 -96.962,-47.552c0.971,0.026 1.935,0.038 2.903,0.038c59.365,0 107.561,-48.196 107.561,-107.561c0,-35.458 -17.195,-66.933 -43.688,-86.527Z"></path><path fill="#d4dadd" d="M297.534,111.673c22.117,22.192 35.799,52.8 35.799,86.579c0,67.706 -54.969,122.675 -122.675,122.675c-26.835,-0 -51.67,-8.636 -71.877,-23.28c75.884,13.791 149.123,-35.958 164.057,-111.879c5.048,-25.662 2.798,-51.08 -5.304,-74.095Z"></path><path fill="#c6ced2" d="M87.179 34.629l7.868 21.264 21.264 7.868-21.264 7.868-7.868 21.264-7.868-21.264-21.264-7.868 21.264-7.868 7.868-21.264zM51.355 152.77l7.868 21.264 21.264 7.869-21.264 7.868-7.868 21.264-7.869-21.264-21.264-7.868 21.264-7.869 7.869-21.264z"></path></svg>