<svg xmlns="http://www.w3.org/2000/svg" data-name="Layer 2" viewBox="0 0 684.89 655.51" id="sajadah"><g data-name="Layer 4"><path fill="#64863c" d="M673.32,69.16s-5.61,32.85-32.86,85.69c-20.69,40.12-53.83,91.76-106.46,149.3-5.07,5.55-9.99,11.01-14.75,16.4-32.82,37.11-58.32,70.42-77.99,100.48-21.59,32.98-36.16,62.06-45.66,87.96-12.32,33.57-16.11,61.83-15.65,86.37H5.24c-1.31-25.04,2.62-53.38,14.86-86.37,1.38-3.73,2.87-7.52,4.48-11.37,20.65-49.74,59.8-109.7,127-184.04,3.27-3.61,6.59-7.25,9.99-10.93,53.51-57.94,86.27-108.61,106.27-147.8,27.31-53.56,30.79-85.69,30.79-85.69h374.69Z"></path><path fill="#8cb755" d="M305.85,81.21c-2.88,12.89-9.68,36.55-25.12,68.55-1.14,2.36,.57,5.1,3.19,5.1h5.77c1.43,0,2.74-.85,3.27-2.18,10.12-25.16,34.17-42.04,61.27-42.94,1.44-.05,2.7-1,3.18-2.37,3.56-10.07,5.92-18.32,7.44-24.55,.55-2.23-1.15-4.38-3.45-4.38h-52.11c-1.66,0-3.1,1.14-3.46,2.76Zm350.98-2.76h-52.46c-1.59,0-2.99,1.06-3.41,2.59-1.21,4.36-2.87,9.86-5.12,16.39-.75,2.17,.74,4.44,3.02,4.69,17.73,1.98,31.21,15.51,34.38,31.92,.65,3.39,5.23,4.01,6.7,.89,10.6-22.49,16.82-40.29,20.29-51.93,.68-2.28-1.03-4.56-3.4-4.56ZM32.48,508.99h0c-1.47,0-2.8,.91-3.32,2.29-.12,.31-.24,.63-.35,.94-9.24,24.92-14.02,48.01-14.49,70.22-.04,1.99,1.56,3.63,3.55,3.63h52.56c1.92,0,3.5-1.53,3.54-3.46,.14-7.39,.75-15.07,1.88-23.07,.28-2.01-1.18-3.83-3.2-4.01-21.71-1.89-38-21.02-36.65-42.79,.13-2.04-1.49-3.76-3.53-3.76Zm342.23,2.93c-5.15,29.23-29.94,51.04-59.58,52.41-1.73,.08-3.16,1.39-3.36,3.11-.59,5.12-.97,10.09-1.18,14.92-.09,2.02,1.52,3.71,3.55,3.71h53.13c1.91,0,3.46-1.52,3.54-3.43,.91-22.49,5.3-45.23,13.31-69,.77-2.29-.94-4.66-3.36-4.66h-2.56c-1.72,0-3.19,1.24-3.48,2.93Z"></path><path fill="#f9bd38" d="M673.32 69.16H298.63c2.65-38.26-8.03-49.92-8.03-49.92l55.44-2.02 8.46 29.59 10.46-30.29 58.97-2.16 6.12 26.42 9.93-27.02 85.12-3.11 7.75 27.63 11.24-28.32 66.69-2.44 9.2 35 7.76-35.62 52.15-1.91c-12.54 41.81-6.56 64.16-6.56 64.16zM73.61 618.76c1.01 13.9 18.13 24.59 22.17 31.75h64.76c-3.92-16.98.75-31.75.75-31.75 1.01 13.9 19.67 24.59 23.71 31.75h75.61c-3.92-16.98.75-31.75.75-31.75 1.01 13.9 19.78 24.59 23.82 31.75h50.14c-3.92-16.98.75-31.75.75-31.75 1.01 13.9 23.53 24.59 27.57 31.75h75.15s-52.47-22.35-58.83-55.15H5.24s-.67 25.63 20.86 55.15h46.77c-3.92-16.98.75-31.75.75-31.75z"></path><path fill="#577530" d="M519.25,320.55c-32.82,37.11-58.32,70.42-77.99,100.48-130.05-7.59-282.45,5.89-416.68,76.59,20.65-49.74,59.8-109.7,127-184.04,83.21,28.8,204.53,45.36,367.67,6.97Z"></path><path fill="#f2e9b6" d="M504.42,220.45c-14.67,38.96-53.09,49.22-53.09,49.22,0,0,27.67,8.09,9.66,30.68-.02,.01-.03,.03-.04,.05-10.47,12.31-20.33,24.4-29.57,36.3-22.2,28.55-40.87,55.97-56.13,82.46-20.83,36.13-35.31,70.52-43.73,103.72-2.27,8.97-10.36,15.23-19.6,15.23H88.19c-8.74,0-14.73-8.85-11.42-16.94,2.67-6.53,5.72-13.24,9.14-20.14,6.29-12.7,13.88-25.99,22.72-39.84,23.16-36.26,54.97-76.34,95-119.7,3.36-3.64,6.64-7.25,9.85-10.84,12.92-14.42,24.67-28.43,35.34-42,.05-.06,.1-.11,.14-.17,26.96-32.36,65.16-36.17,65.16-36.17,0,0-11.89-28.42,8.07-56.71,29.13-41.23,141.03-69.19,141.03-69.19,0,0,56.67,52.95,41.2,94.04Z"></path><path fill="#ddd197" d="M431.38,336.7c-22.2,28.55-40.87,55.97-56.13,82.46-86.03,.21-178.3,11.2-266.62,42.03,23.16-36.26,54.97-76.34,95-119.7,3.36-3.64,6.64-7.25,9.85-10.84,58.98,12.41,131.36,17.3,217.9,6.05Z"></path><g><path d="M245.12,285.28c-.06,.07-.11,.14-.17,.21-.02,.03-.04,.06-.06,.07-13.74,17.45-28.85,35.12-44.93,52.54-55.66,60.29-95.54,114.35-118.52,160.71-3.46,6.99-6.59,13.88-9.29,20.47-2.18,5.33-1.56,11.37,1.65,16.16,3.23,4.81,8.61,7.68,14.39,7.68h223.73c11.56,0,21.61-7.81,24.45-19,16.92-66.72,58.92-138.84,128.39-220.48h0c.07-.08,.13-.16,.2-.25,6.38-8.02,8.5-15.61,6.3-22.56-1.44-4.55-4.55-7.97-7.81-10.45,13.23-6.14,35.1-20.11,45.66-48.17h0c16.46-43.72-40.05-97.2-42.46-99.46-1.24-1.16-2.99-1.61-4.63-1.2-4.64,1.16-114.04,28.9-143.91,71.16-15.97,22.62-13.13,45.17-10.48,55.58-12.26,2.48-40.72,10.82-62.5,36.97Zm73.62-34.88c-.44-1.06-10.5-26.35,7.53-51.9,25.28-35.78,118.4-61.97,135.47-66.53,9.55,9.58,50.55,53.37,38,86.73-13.54,35.97-49.35,46.06-49.7,46.15-2.16,.58-3.67,2.52-3.7,4.76-.03,2.24,1.43,4.23,3.57,4.87,2.72,.82,10.15,4.1,11.81,9.4,1.12,3.59-.44,8.08-4.65,13.36h0l-.03,.03c-70.44,82.79-113.08,156.19-130.38,224.39-1.71,6.74-7.78,11.46-14.76,11.46H88.19c-2.48,0-4.71-1.18-6.09-3.25-1.37-2.05-1.63-4.52-.7-6.79,2.61-6.38,5.64-13.05,8.99-19.82,22.56-45.5,61.9-98.78,116.91-158.37,16.24-17.59,31.51-35.44,45.4-53.08,.07-.08,.14-.17,.22-.27,25.24-30.17,61.35-34.22,61.7-34.25,1.57-.16,2.97-1.05,3.79-2.41,.81-1.35,.93-3.02,.33-4.48Z"></path><path d="M683.84,1.94c-.99-1.28-2.54-2.01-4.14-1.94l-52.15,1.91c-2.28,.08-4.22,1.7-4.7,3.93l-3.33,15.28-3.91-14.87c-.59-2.26-2.71-3.81-5.02-3.73l-66.69,2.44c-1.98,.07-3.73,1.31-4.46,3.15l-5.77,14.55-3.75-13.37c-.62-2.22-2.69-3.73-5-3.65l-85.12,3.11c-2.03,.07-3.81,1.37-4.51,3.27l-4.15,11.28-2.34-10.09c-.54-2.33-2.67-3.96-5.05-3.87l-58.97,2.16c-2.06,.08-3.87,1.41-4.54,3.36l-5.29,15.3-4.1-14.35c-.63-2.21-2.71-3.72-4.99-3.62l-55.44,2.02c-1.99,.07-3.81,1.24-4.54,3.09-.72,1.83-.37,3.84,1,5.25,.59,.75,9.09,12.35,6.77,46.13-.21,1.74-4.4,33.18-30.26,83.88-24.57,48.14-60.06,97.49-105.49,146.67C84.41,378.84,37.8,446.87,15.41,507.25,3.77,538.63-1.19,567.47,.24,595.41c-.03,2.6,.24,28.46,21.82,58.05,.94,1.29,2.44,2.05,4.04,2.05h46.77c1.52,0,2.96-.69,3.91-1.89,.95-1.19,1.3-2.75,.96-4.24-1.06-4.58-1.43-9-1.43-12.96,2.76,3.45,5.88,6.56,8.72,9.39,2.78,2.77,5.41,5.39,6.41,7.15,.89,1.57,2.55,2.54,4.36,2.54h64.76c1.52,0,2.96-.69,3.91-1.89,.95-1.19,1.3-2.75,.96-4.24-1.11-4.81-1.47-9.44-1.43-13.55,3.04,3.65,6.54,6.91,9.72,9.86,2.93,2.72,5.95,5.53,6.94,7.28,.89,1.57,2.55,2.54,4.36,2.54h75.61c1.52,0,2.96-.69,3.91-1.89,.95-1.19,1.3-2.75,.96-4.24-1.11-4.82-1.47-9.48-1.43-13.59,3.06,3.66,6.59,6.93,9.8,9.89,2.94,2.72,5.99,5.54,6.97,7.28,.89,1.57,2.55,2.54,4.36,2.54h50.14c1.52,0,2.96-.69,3.91-1.89,.95-1.19,1.3-2.75,.96-4.24-1.22-5.28-1.53-10.35-1.41-14.75,3.71,4.07,8.22,7.65,12.26,10.85,3.41,2.71,7.28,5.79,8.24,7.47,.89,1.57,2.55,2.54,4.36,2.54h75.15c2.38,0,4.42-1.67,4.9-4,.48-2.33-.75-4.67-2.94-5.6-.5-.21-49.65-21.52-55.8-51.1-.45-27.21,4.57-54.72,15.35-84.1,21.84-59.51,66.78-125.97,137.4-203.19,45.13-49.34,81.2-99.93,107.21-150.38,27.29-52.93,33.11-85.77,33.35-87.15,.09-.5,.09-1.01,.02-1.5,0-.02,0-.04,0-.06-.02-.14-.05-.28-.08-.42-.01-.04-.01-.09-.03-.13-.06-.21-5.37-21.82,6.52-61.45,.46-1.54,.15-3.22-.83-4.49ZM342.31,22.35l7.38,25.83c.6,2.1,2.49,3.56,4.67,3.62,2.18,.06,4.15-1.3,4.86-3.37l9.34-27.05,51.43-1.88,5.19,22.4c.5,2.15,2.35,3.72,4.56,3.86,2.24,.15,4.24-1.19,5-3.27l8.77-23.87,77.83-2.84,6.69,23.84c.58,2.07,2.41,3.53,4.55,3.64,2.13,.12,4.12-1.15,4.91-3.15l10.03-25.29,59.42-2.17,8.18,31.13c.58,2.2,2.57,3.73,4.83,3.73,.04,0,.07,0,.11,0,2.31-.05,4.29-1.68,4.78-3.93l6.93-31.83,41.4-1.52c-7.16,26.74-6.75,44.99-5.76,53.91H303.91c.83-20.46-2.17-33.03-5.05-40.22l43.46-1.59Zm76.09,623.16h-52.24c-2.13-2.47-5.23-4.93-8.9-7.85-7-5.56-15.71-12.48-16.21-19.27-.17-2.39-2.02-4.32-4.4-4.6-2.39-.28-4.63,1.17-5.35,3.46-.18,.58-3.99,12.89-1.96,28.26h-41.57c-1.84-2.27-4.35-4.59-7.14-7.17-6.13-5.67-13.77-12.73-14.29-19.94-.17-2.39-2.02-4.32-4.4-4.6-2.39-.28-4.63,1.17-5.35,3.46-.18,.58-3.99,12.89-1.96,28.26h-67.03c-1.83-2.26-4.32-4.58-7.08-7.15-6.11-5.67-13.71-12.74-14.24-19.97-.17-2.39-2.02-4.32-4.4-4.6-2.4-.28-4.63,1.17-5.35,3.46-.18,.58-3.99,12.89-1.96,28.26h-56.15c-1.67-2.14-3.88-4.34-6.33-6.78-5.76-5.74-12.94-12.88-13.48-20.33-.17-2.39-2.02-4.32-4.4-4.6-2.4-.28-4.63,1.17-5.35,3.46-.18,.58-3.99,12.89-1.96,28.26H28.67c-13.58-19.48-17.16-36.98-18.1-45.15H376.04c6.04,20.08,26.76,35.8,42.36,45.15Zm217.62-492.95c-25.61,49.66-61.17,99.53-105.7,148.21-71.51,78.2-117.12,145.74-139.41,206.49-10.6,28.9-15.85,56.14-15.99,83.09H10.05c-.62-25.16,4.21-51.27,14.74-79.63,21.92-59.13,67.87-126.08,140.46-204.69,46.04-49.86,82.06-99.96,107.05-148.92,21.92-42.99,28.71-72.27,30.62-82.97h364.18c-2.85,11.56-11.07,39.61-31.08,78.41Z"></path></g></g></svg>