<svg xmlns="http://www.w3.org/2000/svg" width="32" height="32" id="sun"><g stroke="#454b54" transform="translate(0 -1018.952)"><ellipse cx="11.5" cy="1032.878" fill="#ffd039" stroke="none" rx="5" ry="5.016"></ellipse><path fill="#fff" stroke="none" d="M23.571 1044.452c2.722 0 4.929-2.228 4.929-4.976 0-2.748-2.207-4.976-4.929-4.976h-.211c-.747-2.93-3.363-4.98-6.36-4.983-3.63 0-6.571 2.971-6.571 6.635 0 .03.001.06.003.087a4.01 4.01 0 0 0-.825-.087c-2.268 0-4.107 1.857-4.107 4.147s1.839 4.147 4.107 4.147z"></path><path fill="none" stroke-linecap="round" stroke-linejoin="round" d="M23.571 1044.452c2.722 0 4.929-2.228 4.929-4.976 0-2.748-2.207-4.976-4.929-4.976h-.211c-.747-2.93-3.363-4.98-6.36-4.983-3.63 0-6.571 2.971-6.571 6.635 0 .03.001.06.003.087a4.01 4.01 0 0 0-.825-.087c-2.268 0-4.107 1.857-4.107 4.147s1.839 4.147 4.107 4.147z"></path><path fill="none" d="M7.834 1036.289a5 5.016 0 0 1-1.051-5.074 5 5.016 0 0 1 3.984-3.298 5 5.016 0 0 1 4.767 1.997"></path><path fill="none" stroke-linecap="round" stroke-linejoin="round" d="M11.5 1025.87v-1m-7.993 7.992h1m10.49-6.056.5-.866m-10.92 2.926.867.5m-.866 7.493.866-.5m2.06-10.419.5.866"></path></g></svg>