<svg xmlns="http://www.w3.org/2000/svg" viewBox="0 0 32 32" id="sunset"><path fill="#fedb2d" d="M10.648 21.719a1.997 1.997 0 0 0 2.704 0 .963.963 0 0 1 1.296 0 1.997 1.997 0 0 0 2.704 0 .963.963 0 0 1 1.296 0 1.997 1.997 0 0 0 2.704 0 .948.948 0 0 1 .534-.23c.39-.835.614-1.762.614-2.744a6.5 6.5 0 1 0-13 0c0 .982.224 1.91.614 2.744a.948.948 0 0 1 .534.23z"></path><path fill="#4ebcec" d="M28 24.255c-.521 0-.996-.199-1.352-.526a.963.963 0 0 0-1.296 0c-.356.327-.831.526-1.352.526s-.996-.199-1.352-.526a.963.963 0 0 0-1.296 0c-.356.327-.831.526-1.352.526s-.996-.199-1.352-.526a.963.963 0 0 0-1.296 0 1.992 1.992 0 0 1-1.352.526c-.521 0-.996-.199-1.352-.526a.963.963 0 0 0-1.296 0c-.356.327-.831.526-1.352.526s-.996-.199-1.352-.526a.963.963 0 0 0-1.296 0 1.997 1.997 0 0 1-2.704 0 .963.963 0 0 0-1.296 0A1.997 1.997 0 0 1 4 24.255v-2.009c.521 0 .996-.199 1.352-.526a.963.963 0 0 1 1.296 0c.356.326.831.525 1.352.525s.996-.199 1.352-.526a.963.963 0 0 1 1.296 0c.356.327.831.526 1.352.526s.996-.199 1.352-.526a.963.963 0 0 1 1.296 0c.356.327.831.526 1.352.526.521 0 .996-.199 1.352-.526a.963.963 0 0 1 1.296 0c.356.327.831.526 1.352.526s.996-.199 1.352-.526a.963.963 0 0 1 1.296 0c.356.327.831.526 1.352.526s.996-.199 1.352-.526a.963.963 0 0 1 1.296 0c.356.327.831.526 1.352.526v2.01z"></path><path d="M4.973 19.245h2.555a.5.5 0 0 0 0-1H4.973a.5.5 0 0 0 0 1zm19-.5a.5.5 0 0 0 .5.5h2.555a.5.5 0 0 0 0-1h-2.555a.5.5 0 0 0-.5.5z"></path><path d="M4 22.745c.628 0 1.229-.233 1.69-.658a.468.468 0 0 1 .619 0c.924.85 2.457.85 3.381 0a.468.468 0 0 1 .619 0c.924.85 2.457.85 3.381 0a.468.468 0 0 1 .619 0c.924.85 2.457.85 3.381 0a.468.468 0 0 1 .619 0c.924.85 2.457.85 3.381 0a.468.468 0 0 1 .619 0c.924.85 2.457.85 3.381 0a.468.468 0 0 1 .619 0 2.49 2.49 0 0 0 1.69.658.5.5 0 0 0 0-1c-.377 0-.737-.141-1.015-.395a1.465 1.465 0 0 0-1.971 0c-.555.508-1.475.508-2.029 0a1.42 1.42 0 0 0-.401-.247c.27-.756.417-1.558.417-2.358 0-3.859-3.141-7-7-7s-7 3.141-7 7c0 .811.145 1.601.418 2.357a1.42 1.42 0 0 0-.403.248c-.555.508-1.475.508-2.029 0a1.465 1.465 0 0 0-1.971 0A1.502 1.502 0 0 1 4 21.745a.5.5 0 0 0 0 1zm12-10c3.309 0 6 2.691 6 6 0 .789-.167 1.581-.471 2.31a1.433 1.433 0 0 0-.515.295c-.555.508-1.475.508-2.029 0a1.465 1.465 0 0 0-1.971 0c-.555.508-1.475.508-2.029 0a1.465 1.465 0 0 0-1.971 0c-.555.508-1.475.508-2.029 0a1.422 1.422 0 0 0-.519-.296A5.971 5.971 0 0 1 10 18.745c0-3.308 2.691-6 6-6z"></path><path d="M28 23.755c-.376 0-.736-.141-1.014-.395a1.468 1.468 0 0 0-1.972-.001c-.557.51-1.474.509-2.028.001s-1.419-.507-1.972-.001c-.557.51-1.474.509-2.028.001s-1.419-.507-1.972-.001c-.557.51-1.474.509-2.028.001s-1.419-.507-1.972-.001c-.557.51-1.474.509-2.028.001s-1.419-.507-1.972-.001c-.557.51-1.474.509-2.028.001s-1.419-.507-1.972-.001A1.497 1.497 0 0 1 4 23.755a.5.5 0 0 0 0 1c.627 0 1.227-.233 1.691-.658a.458.458 0 0 1 .618.001c.928.848 2.452.849 3.382-.001a.458.458 0 0 1 .618.001c.928.848 2.452.849 3.382-.001a.458.458 0 0 1 .618.001c.928.848 2.452.849 3.382-.001a.458.458 0 0 1 .618.001c.928.848 2.452.849 3.382-.001a.458.458 0 0 1 .618.001c.928.848 2.452.849 3.382-.001a.458.458 0 0 1 .618.001 2.498 2.498 0 0 0 1.69.657.5.5 0 0 0 .001-1zM16 10.689a.5.5 0 0 0 .5-.5V7.745a.5.5 0 0 0-1 0v2.444a.5.5 0 0 0 .5.5zm6.05 2.506a.502.502 0 0 0 .354-.146l1.729-1.728a.5.5 0 0 0-.707-.707l-1.729 1.728a.5.5 0 0 0 .353.853zm-12.453-.146a.498.498 0 0 0 .708 0 .5.5 0 0 0 0-.707l-1.729-1.728a.5.5 0 0 0-.707.707l1.728 1.728zm2.667-2.017a.501.501 0 0 0 .653.271.5.5 0 0 0 .271-.653l-.312-.752a.499.499 0 1 0-.924.382l.312.752zm6.819.271a.497.497 0 0 0 .653-.271l.312-.752a.5.5 0 0 0-.924-.382l-.312.752a.501.501 0 0 0 .271.653zm4.359 4.36a.501.501 0 0 0 .653.271l.753-.313a.5.5 0 0 0-.382-.924l-.753.313a.5.5 0 0 0-.271.653zm-16.291-.042.753.313a.497.497 0 0 0 .653-.271.5.5 0 0 0-.271-.653l-.753-.313a.5.5 0 1 0-.382.924z"></path></svg>