<svg xmlns="http://www.w3.org/2000/svg" width="16" height="16" id="sunset"><path d="M3.43 1048.668a.5.5 0 0 0-.358.172 1.497 1.497 0 0 1-2.21.072.5.5 0 1 0-.714.703 2.509 2.509 0 0 0 1.788.748c.58 0 1.07-.331 1.515-.695.444.363.935.695 1.516.695a.5.5 0 0 0 .002 0c.581 0 1.07-.331 1.515-.695.445.363.935.695 1.516.695.58 0 1.071-.332 1.516-.695.444.364.934.695 1.515.695a.5.5 0 0 0 .002 0c.581 0 1.072-.332 1.516-.695.444.364.934.695 1.515.695.696 0 1.332-.286 1.788-.748a.5.5 0 1 0-.713-.703c-.276.28-.652.45-1.073.451-.435 0-.849-.189-1.138-.523a.5.5 0 0 0-.756 0 1.51 1.51 0 0 1-1.139.523c-.435 0-.849-.189-1.138-.523a.5.5 0 0 0-.756 0c-.29.334-.704.523-1.139.523-.435 0-.849-.189-1.139-.523a.5.5 0 0 0-.755 0c-.29.334-.702.522-1.137.523a1.51 1.51 0 0 1-1.14-.523.5.5 0 0 0-.4-.172z" style="line-height:normal;text-indent:0;text-align:start;text-decoration-line:none;text-decoration-style:solid;text-decoration-color:#000;text-transform:none;block-progression:tb;white-space:normal;isolation:auto;mix-blend-mode:normal;solid-color:#000;solid-opacity:1" fill="#31ccfb" color="#000" enable-background="accumulate" font-family="sans-serif" font-weight="400" overflow="visible" transform="translate(0 -1036.362)"></path><path fill="#fdc731" d="M5.483 1048.776a3.5 3.486 0 0 1 .066-4.911 3.5 3.486 0 0 1 4.931.029 3.5 3.486 0 0 1 .008 4.912" transform="translate(0 -1036.362)"></path><path d="M7.992 1038.361a.5.5 0 00-.492.506v2a.5.5 0 101 0v-2a.5.5 0 00-.508-.506zM1.467 1042.115a.5.5 0 00-.213.936l1.732 1a.5.5 0 10.5-.867l-1.732-1a.5.5 0 00-.287-.068zM14.518 1042.113a.5.5 0 00-.272.07l-1.732 1a.5.5 0 10.5.867l1.732-1a.5.5 0 00-.228-.937zM3.43 1047.668a.5.5 0 00-.358.172 1.498 1.498 0 01-2.21.072.5.5 0 10-.714.703 2.51 2.51 0 001.788.75c.58 0 1.07-.333 1.515-.697.444.363.935.697 1.516.697a.5.5 0 00.002 0c.581 0 1.07-.333 1.515-.697.445.363.935.697 1.516.697.58 0 1.071-.334 1.516-.697.444.364.934.697 1.515.697a.5.5 0 00.002 0c.581 0 1.072-.334 1.516-.697.444.364.934.697 1.515.697a2.51 2.51 0 001.788-.75.5.5 0 10-.713-.703 1.498 1.498 0 01-2.211-.072.5.5 0 00-.756 0 1.51 1.51 0 01-1.139.525c-.435 0-.849-.19-1.138-.525a.5.5 0 00-.756 0c-.29.334-.704.525-1.139.525-.435 0-.849-.19-1.139-.525a.5.5 0 00-.755 0c-.29.334-.703.524-1.137.525-.435 0-.851-.19-1.14-.525a.5.5 0 00-.4-.172z" style="line-height:normal;text-indent:0;text-align:start;text-decoration-line:none;text-decoration-style:solid;text-decoration-color:#000;text-transform:none;block-progression:tb;white-space:normal;isolation:auto;mix-blend-mode:normal;solid-color:#000;solid-opacity:1" color="#000" enable-background="accumulate" font-family="sans-serif" font-weight="400" overflow="visible" transform="translate(0 -1036.362)"></path><path d="M8.023 1042.37a3.985 3.985 0 00-2.9 6.756.5.5 0 10.719-.698 2.968 2.968 0 01.056-4.205 3.004 3.004 0 014.229.025 2.969 2.969 0 01.006 4.205.5.5 0 10.709.705 3.985 3.985 0 00-2.819-6.79zM13.5 1045.867a.5.5 0 100 1h.992a.5.5 0 100-1H13.5zM1.508 1045.867a.5.5 0 100 1H2.5a.5.5 0 100-1h-.992zM11.254 1040.238a.5.5 0 00-.441.256l-.497.86a.5.5 0 10.868.5l.496-.86a.5.5 0 00-.426-.756zM4.73 1040.238a.5.5 0 00-.41.756l.496.86a.5.5 0 10.868-.5l-.497-.86a.5.5 0 00-.457-.256z" style="line-height:normal;text-indent:0;text-align:start;text-decoration-line:none;text-decoration-style:solid;text-decoration-color:#000;text-transform:none;block-progression:tb;white-space:normal;isolation:auto;mix-blend-mode:normal;solid-color:#000;solid-opacity:1" color="#000" enable-background="accumulate" font-family="sans-serif" font-weight="400" overflow="visible" transform="translate(0 -1036.362)"></path></svg>